<svg id="Layer_1" data-name="Layer 1" xmlns="http://www.w3.org/2000/svg" viewBox="0 0 233.9 25.7"><defs><style>.cls-1{fill:#a4b28b;}</style></defs><polygon class="cls-1" points="17.17 25.7 18.46 25.7 18.46 0.92 13.56 0.92 13.56 14.65 1.29 0.37 0 0.37 0 25.19 4.86 25.19 4.86 11.97 17.17 25.7"/><polygon class="cls-1" points="49.57 20.33 41.85 20.33 41.85 15.47 48.24 15.47 48.24 10.61 41.85 10.61 41.85 5.75 49.16 5.75 49.16 0.88 36.99 0.88 36.99 25.19 49.57 25.19 49.57 20.33"/><path class="cls-1" d="M75.3,19.68a6.59,6.59,0,0,1-2.38-2.15,8.42,8.42,0,0,1-1.18-6.14,8,8,0,0,1,1.18-2.94A6.53,6.53,0,0,1,75.3,6.29a8.18,8.18,0,0,1,7.14,0,6.45,6.45,0,0,1,2.38,2.16A7.9,7.9,0,0,1,86,11.39a8.16,8.16,0,0,1,0,3.19,8,8,0,0,1-1.19,3,6.51,6.51,0,0,1-2.38,2.15,8.18,8.18,0,0,1-7.14,0Zm9.07,4.8a11.16,11.16,0,0,0,3.92-2.84,12.1,12.1,0,0,0,2.35-4,14,14,0,0,0,0-9.21,12.1,12.1,0,0,0-2.35-4,11.16,11.16,0,0,0-3.92-2.84,14.9,14.9,0,0,0-11,0,11.16,11.16,0,0,0-3.92,2.84,11.93,11.93,0,0,0-2.35,4,14,14,0,0,0,0,9.21,11.93,11.93,0,0,0,2.35,4,11.16,11.16,0,0,0,3.92,2.84,14.9,14.9,0,0,0,11,0Z"/><polygon class="cls-1" points="110.59 0.51 109.03 0.51 109.03 25.19 113.96 25.19 113.96 11.63 120.18 18.16 126.4 11.63 126.37 25.19 131.3 25.19 131.3 0.51 129.77 0.51 120.18 11.19 110.59 0.51"/><path class="cls-1" d="M158.16,11.7,160.37,18h-4.49Zm-5,13.49,1-2.62h8.06l1,2.62h5.48L158.39,0h-.51L147.65,25.19Z"/><path class="cls-1" d="M189.94,5.75h4.29a2.28,2.28,0,0,1,1.58.54,2.76,2.76,0,0,1,.8,1.36,3.46,3.46,0,0,1,0,1.63,2.72,2.72,0,0,1-.8,1.36,2.28,2.28,0,0,1-1.58.55h-4.29Zm12.75,19.44-5.64-10A6,6,0,0,0,200,13.41a7.37,7.37,0,0,0,1.56-2.85,8.35,8.35,0,0,0,.26-3.3,8,8,0,0,0-1.06-3.13,6.72,6.72,0,0,0-2.36-2.35,7.11,7.11,0,0,0-3.69-.9h-9.59V25.19h4.86V15.91h2.35l4.9,9.28Z"/><polygon class="cls-1" points="227.85 5.75 233.9 5.75 233.9 0.92 216.94 0.92 216.94 5.75 222.99 5.75 222.99 25.19 227.85 25.19 227.85 5.75"/></svg>